<mxfile host="app.diagrams.net" agent="Mozilla/5.0 (Windows NT 10.0; Win64; x64) AppleWebKit/537.36 (KHTML, like Gecko) Chrome/141.0.0.0 Safari/537.36" version="28.2.7">
  <diagram name="Leht-1" id="jvF4crAcnZhy5jLM-nr5">
    <mxGraphModel dx="2088" dy="1336" grid="1" gridSize="10" guides="1" tooltips="1" connect="1" arrows="1" fold="1" page="1" pageScale="1" pageWidth="827" pageHeight="1169" math="0" shadow="0">
      <root>
        <mxCell id="0" />
        <mxCell id="1" parent="0" />
        <mxCell id="eCjk5t6VVMTMGoWfqcsA-4" style="edgeStyle=orthogonalEdgeStyle;rounded=0;orthogonalLoop=1;jettySize=auto;html=1;entryX=0.5;entryY=0;entryDx=0;entryDy=0;" edge="1" parent="1" source="eCjk5t6VVMTMGoWfqcsA-1" target="eCjk5t6VVMTMGoWfqcsA-3">
          <mxGeometry relative="1" as="geometry" />
        </mxCell>
        <mxCell id="eCjk5t6VVMTMGoWfqcsA-1" value="START" style="ellipse;whiteSpace=wrap;html=1;" vertex="1" parent="1">
          <mxGeometry x="40" y="30" width="140" height="90" as="geometry" />
        </mxCell>
        <mxCell id="eCjk5t6VVMTMGoWfqcsA-2" value="END" style="ellipse;whiteSpace=wrap;html=1;" vertex="1" parent="1">
          <mxGeometry x="348" y="1030" width="142" height="90" as="geometry" />
        </mxCell>
        <mxCell id="eCjk5t6VVMTMGoWfqcsA-10" style="edgeStyle=orthogonalEdgeStyle;rounded=0;orthogonalLoop=1;jettySize=auto;html=1;entryX=0.5;entryY=0;entryDx=0;entryDy=0;" edge="1" parent="1" source="eCjk5t6VVMTMGoWfqcsA-3" target="eCjk5t6VVMTMGoWfqcsA-6">
          <mxGeometry relative="1" as="geometry" />
        </mxCell>
        <mxCell id="eCjk5t6VVMTMGoWfqcsA-3" value="&lt;div&gt;&amp;nbsp;Console.WriteLine(&quot;Sisesta vokaal ja vajuta enter&quot;);&lt;/div&gt;&lt;div&gt;&amp;nbsp;string input = Console.ReadLine();&lt;/div&gt;" style="rounded=0;whiteSpace=wrap;html=1;" vertex="1" parent="1">
          <mxGeometry x="-50" y="160" width="320" height="70" as="geometry" />
        </mxCell>
        <mxCell id="eCjk5t6VVMTMGoWfqcsA-12" style="edgeStyle=orthogonalEdgeStyle;rounded=0;orthogonalLoop=1;jettySize=auto;html=1;entryX=0.5;entryY=0;entryDx=0;entryDy=0;" edge="1" parent="1" source="eCjk5t6VVMTMGoWfqcsA-6" target="eCjk5t6VVMTMGoWfqcsA-11">
          <mxGeometry relative="1" as="geometry" />
        </mxCell>
        <mxCell id="eCjk5t6VVMTMGoWfqcsA-6" value="switch (input)&amp;nbsp;" style="rounded=0;whiteSpace=wrap;html=1;" vertex="1" parent="1">
          <mxGeometry x="60" y="300" width="100" height="60" as="geometry" />
        </mxCell>
        <mxCell id="eCjk5t6VVMTMGoWfqcsA-14" style="edgeStyle=orthogonalEdgeStyle;rounded=0;orthogonalLoop=1;jettySize=auto;html=1;entryX=0.5;entryY=0;entryDx=0;entryDy=0;" edge="1" parent="1" source="eCjk5t6VVMTMGoWfqcsA-11" target="eCjk5t6VVMTMGoWfqcsA-13">
          <mxGeometry relative="1" as="geometry" />
        </mxCell>
        <mxCell id="eCjk5t6VVMTMGoWfqcsA-16" style="edgeStyle=orthogonalEdgeStyle;rounded=0;orthogonalLoop=1;jettySize=auto;html=1;" edge="1" parent="1" source="eCjk5t6VVMTMGoWfqcsA-11" target="eCjk5t6VVMTMGoWfqcsA-15">
          <mxGeometry relative="1" as="geometry" />
        </mxCell>
        <mxCell id="eCjk5t6VVMTMGoWfqcsA-11" value="case &quot;a&quot;:" style="rhombus;whiteSpace=wrap;html=1;" vertex="1" parent="1">
          <mxGeometry x="50" y="410" width="120" height="120" as="geometry" />
        </mxCell>
        <mxCell id="eCjk5t6VVMTMGoWfqcsA-27" style="edgeStyle=orthogonalEdgeStyle;rounded=0;orthogonalLoop=1;jettySize=auto;html=1;entryX=0;entryY=0.5;entryDx=0;entryDy=0;" edge="1" parent="1" source="eCjk5t6VVMTMGoWfqcsA-13" target="eCjk5t6VVMTMGoWfqcsA-2">
          <mxGeometry relative="1" as="geometry">
            <Array as="points">
              <mxPoint x="100" y="1075" />
            </Array>
          </mxGeometry>
        </mxCell>
        <mxCell id="eCjk5t6VVMTMGoWfqcsA-13" value="&lt;div&gt;Console.WriteLine(&quot;Vokaal a&quot;);&lt;/div&gt;&lt;div&gt;break;&lt;/div&gt;" style="rounded=0;whiteSpace=wrap;html=1;" vertex="1" parent="1">
          <mxGeometry x="10" y="585" width="200" height="60" as="geometry" />
        </mxCell>
        <mxCell id="eCjk5t6VVMTMGoWfqcsA-18" style="edgeStyle=orthogonalEdgeStyle;rounded=0;orthogonalLoop=1;jettySize=auto;html=1;" edge="1" parent="1" source="eCjk5t6VVMTMGoWfqcsA-15" target="eCjk5t6VVMTMGoWfqcsA-17">
          <mxGeometry relative="1" as="geometry" />
        </mxCell>
        <mxCell id="eCjk5t6VVMTMGoWfqcsA-21" style="edgeStyle=orthogonalEdgeStyle;rounded=0;orthogonalLoop=1;jettySize=auto;html=1;" edge="1" parent="1" source="eCjk5t6VVMTMGoWfqcsA-15" target="eCjk5t6VVMTMGoWfqcsA-22">
          <mxGeometry relative="1" as="geometry">
            <mxPoint x="354" y="580" as="targetPoint" />
          </mxGeometry>
        </mxCell>
        <mxCell id="eCjk5t6VVMTMGoWfqcsA-15" value="case &quot;e&quot;:" style="rhombus;whiteSpace=wrap;html=1;" vertex="1" parent="1">
          <mxGeometry x="294" y="410" width="120" height="120" as="geometry" />
        </mxCell>
        <mxCell id="eCjk5t6VVMTMGoWfqcsA-20" style="edgeStyle=orthogonalEdgeStyle;rounded=0;orthogonalLoop=1;jettySize=auto;html=1;" edge="1" parent="1" source="eCjk5t6VVMTMGoWfqcsA-17" target="eCjk5t6VVMTMGoWfqcsA-19">
          <mxGeometry relative="1" as="geometry" />
        </mxCell>
        <mxCell id="eCjk5t6VVMTMGoWfqcsA-24" style="edgeStyle=orthogonalEdgeStyle;rounded=0;orthogonalLoop=1;jettySize=auto;html=1;entryX=0.5;entryY=0;entryDx=0;entryDy=0;" edge="1" parent="1" source="eCjk5t6VVMTMGoWfqcsA-17" target="eCjk5t6VVMTMGoWfqcsA-23">
          <mxGeometry relative="1" as="geometry" />
        </mxCell>
        <mxCell id="eCjk5t6VVMTMGoWfqcsA-17" value="case &quot;i&quot;:" style="rhombus;whiteSpace=wrap;html=1;" vertex="1" parent="1">
          <mxGeometry x="530" y="410" width="120" height="120" as="geometry" />
        </mxCell>
        <mxCell id="eCjk5t6VVMTMGoWfqcsA-26" style="edgeStyle=orthogonalEdgeStyle;rounded=0;orthogonalLoop=1;jettySize=auto;html=1;entryX=0.5;entryY=0;entryDx=0;entryDy=0;" edge="1" parent="1" source="eCjk5t6VVMTMGoWfqcsA-19" target="eCjk5t6VVMTMGoWfqcsA-25">
          <mxGeometry relative="1" as="geometry" />
        </mxCell>
        <mxCell id="eCjk5t6VVMTMGoWfqcsA-19" value="default:" style="rhombus;whiteSpace=wrap;html=1;" vertex="1" parent="1">
          <mxGeometry x="763.5" y="407.5" width="113" height="125" as="geometry" />
        </mxCell>
        <mxCell id="eCjk5t6VVMTMGoWfqcsA-28" style="edgeStyle=orthogonalEdgeStyle;rounded=0;orthogonalLoop=1;jettySize=auto;html=1;entryX=0.5;entryY=0;entryDx=0;entryDy=0;" edge="1" parent="1" source="eCjk5t6VVMTMGoWfqcsA-22" target="eCjk5t6VVMTMGoWfqcsA-2">
          <mxGeometry relative="1" as="geometry" />
        </mxCell>
        <mxCell id="eCjk5t6VVMTMGoWfqcsA-22" value="&lt;div&gt;&amp;nbsp;Console.WriteLine(&quot;Vokaal e&quot;);&lt;/div&gt;&lt;div&gt;break;&lt;/div&gt;" style="rounded=0;whiteSpace=wrap;html=1;" vertex="1" parent="1">
          <mxGeometry x="251" y="585" width="206" height="60" as="geometry" />
        </mxCell>
        <mxCell id="eCjk5t6VVMTMGoWfqcsA-23" value="&lt;div&gt;&amp;nbsp;Console.WriteLine(&quot;Vokaal i&quot;);&lt;/div&gt;&lt;div&gt;break;&lt;/div&gt;" style="rounded=0;whiteSpace=wrap;html=1;" vertex="1" parent="1">
          <mxGeometry x="490" y="580" width="200" height="65" as="geometry" />
        </mxCell>
        <mxCell id="eCjk5t6VVMTMGoWfqcsA-30" style="edgeStyle=orthogonalEdgeStyle;rounded=0;orthogonalLoop=1;jettySize=auto;html=1;exitX=0.5;exitY=1;exitDx=0;exitDy=0;entryX=1;entryY=0.5;entryDx=0;entryDy=0;" edge="1" parent="1" source="eCjk5t6VVMTMGoWfqcsA-25" target="eCjk5t6VVMTMGoWfqcsA-2">
          <mxGeometry relative="1" as="geometry" />
        </mxCell>
        <mxCell id="eCjk5t6VVMTMGoWfqcsA-25" value="&lt;div&gt;&amp;nbsp;Console.WriteLine(&quot;Muu tÃ¤ht&quot;);&lt;/div&gt;&lt;div&gt;break;&lt;/div&gt;" style="rounded=0;whiteSpace=wrap;html=1;" vertex="1" parent="1">
          <mxGeometry x="710" y="580" width="220" height="70" as="geometry" />
        </mxCell>
        <mxCell id="eCjk5t6VVMTMGoWfqcsA-29" style="edgeStyle=orthogonalEdgeStyle;rounded=0;orthogonalLoop=1;jettySize=auto;html=1;entryX=0.807;entryY=0.116;entryDx=0;entryDy=0;entryPerimeter=0;" edge="1" parent="1" source="eCjk5t6VVMTMGoWfqcsA-23" target="eCjk5t6VVMTMGoWfqcsA-2">
          <mxGeometry relative="1" as="geometry" />
        </mxCell>
        <mxCell id="eCjk5t6VVMTMGoWfqcsA-31" value="TRUE" style="text;html=1;whiteSpace=wrap;strokeColor=none;fillColor=none;align=center;verticalAlign=middle;rounded=0;" vertex="1" parent="1">
          <mxGeometry x="120" y="550" width="60" height="30" as="geometry" />
        </mxCell>
        <mxCell id="eCjk5t6VVMTMGoWfqcsA-32" value="TRUE" style="text;html=1;whiteSpace=wrap;strokeColor=none;fillColor=none;align=center;verticalAlign=middle;rounded=0;" vertex="1" parent="1">
          <mxGeometry x="360" y="555" width="60" height="30" as="geometry" />
        </mxCell>
        <mxCell id="eCjk5t6VVMTMGoWfqcsA-33" value="TRUE" style="text;html=1;whiteSpace=wrap;strokeColor=none;fillColor=none;align=center;verticalAlign=middle;rounded=0;" vertex="1" parent="1">
          <mxGeometry x="600" y="550" width="60" height="30" as="geometry" />
        </mxCell>
        <mxCell id="eCjk5t6VVMTMGoWfqcsA-34" value="TRUE" style="text;html=1;whiteSpace=wrap;strokeColor=none;fillColor=none;align=center;verticalAlign=middle;rounded=0;" vertex="1" parent="1">
          <mxGeometry x="830" y="550" width="60" height="30" as="geometry" />
        </mxCell>
        <mxCell id="eCjk5t6VVMTMGoWfqcsA-36" value="FALSE" style="text;html=1;whiteSpace=wrap;strokeColor=none;fillColor=none;align=center;verticalAlign=middle;rounded=0;" vertex="1" parent="1">
          <mxGeometry x="191" y="410" width="60" height="30" as="geometry" />
        </mxCell>
        <mxCell id="eCjk5t6VVMTMGoWfqcsA-38" value="TRUE" style="text;html=1;whiteSpace=wrap;strokeColor=none;fillColor=none;align=center;verticalAlign=middle;rounded=0;" vertex="1" parent="1">
          <mxGeometry x="440" y="430" width="60" height="30" as="geometry" />
        </mxCell>
        <mxCell id="eCjk5t6VVMTMGoWfqcsA-39" value="TRUE" style="text;html=1;whiteSpace=wrap;strokeColor=none;fillColor=none;align=center;verticalAlign=middle;rounded=0;" vertex="1" parent="1">
          <mxGeometry x="680" y="430" width="60" height="30" as="geometry" />
        </mxCell>
      </root>
    </mxGraphModel>
  </diagram>
</mxfile>
